In the waning days of the American Civil War, a wounded soldier (Law) embarks on a perilous journey back home to Cold Mountain, North Carolina to reunite with his sweetheart (Kidman). Based on the novel by Charles Frazier.
 
http://www.imdb.com/title/tt0159365/

Subtitles (srt) : Dutch, English.

Covers included.

Wanneer de Zuidelijke soldaat Inman (Jude Law) tijdens de Amerikaanse Burgeroorlog gewond raakt, besluit hij te deserteren en aan een gevaarlijke reis te beginnen naar zijn geboortedorp. Hij hoopt hier herenigd te worden met zijn liefje Ada (Nicole Kidman), die alles op alles moet zetten om te overleven in deze zware tijden. Ze krijgt hulp van Ruby (Renée Zellweger), die Ada helpt bij het runnen van haar boerderij.
 
http://www.moviemeter.nl/film/8828

Ondertitels (srt) : Engels, Nederlands.

Hoesjes bijgevoegd.

General
Complete name                    : Cold Mountain-AC3-XviD-DVDRip[Eng]2003 2 Lions-Team\Cold Mountain-AC3-XviD-DVDRip[Eng]2003 2 Lions-Team.avi
Format                           : AVI
Format/Info                      : Audio Video Interleave
File size                        : 1.37 GiB
Duration                         : 2h 34mn
Overall bit rate                 : 1 268 Kbps
Writing application              : VirtualDubMod 1.5.4.1 (build 2178/release)
Writing library                  : VirtualDubMod build 2178/release

Video
ID                               : 0
Format                           : MPEG-4 Visual
Format profile                   : Simple@L3
Format settings, BVOP            : Yes
Format settings, QPel            : No
Format settings, GMC             : No warppoints
Format settings, Matrix          : Custom
Codec ID                         : XVID
Codec ID/Hint                    : XviD
Duration                         : 2h 34mn
Bit rate                         : 811 Kbps
Width                            : 608 pixels
Height                           : 256 pixels
Display aspect ratio             : 2.35:1
Frame rate                       : 23.976 fps
Resolution                       : 8 bits
Colorimetry                      : 4:2:0
Scan type                        : Progressive
Bits/(Pixel*Frame)               : 0.217
Stream size                      : 895 MiB (64%)
Writing library                  : XviD 0.0.09 (UTC 2003-03-25)

Audio
ID                               : 1
Format                           : AC-3
Format/Info                      : Audio Coding 3
Format_Settings_ModeExtension    : CM (complete main)
Codec ID                         : 2000
Duration                         : 2h 34mn
Bit rate mode                    : Constant
Bit rate                         : 448 Kbps
Channel(s)                       : 6 channels
Channel positions                : Front: L C R, Side: L R, LFE
Sampling rate                    : 48.0 KHz
Stream size                      : 495 MiB (35%)
Alignment                        : Split accross interleaves
Interleave, duration             : 42 ms (1.00 video frame)
Interleave, preload duration     : 500 ms

Brought to you by 
2Lions Team

meer zien??
                   
Kom dan eens kijken op ons NIEUWE forum 
            
http://www.2lions-site.nl/

2Lions the site to be for all your Dutch MOVIES and more

******************************************

DON T HIT AND RUN Niet gelijk afhaken als de FILM binnen is blijf seeden. 

Don`t quit after you finished the download, but keep seeding

There are fake torrents from uploaders who use our team name.
Those are not ours, or members from our team.
We 2Lions-Team are not responsible for the fake posts on our name

Wij 2Lions-Team zijn niet verantwoordelijk voor die zieke FAKE posten die op onze naam worden gedaan

Please check our site !!!

to the fakers , get a life !!!
